<?xml version="1.0" encoding="utf-8"?>
<!-- Generator: Adobe Illustrator 25.4.1, SVG Export Plug-In . SVG Version: 6.00 Build 0)  -->
<svg version="1.1" id="Capa_1" xmlns:serif="http://www.serif.com/"
	 xmlns="http://www.w3.org/2000/svg" xmlns:xlink="http://www.w3.org/1999/xlink" x="0px" y="0px" viewBox="0 0 508 508"
	 style="enable-background:new 0 0 508 508;" xml:space="preserve">
<style type="text/css">
	.st0{fill:#1E1C21;}
</style>
<g transform="matrix(1.01619,0,0,1.01619,44,43.8384)">
	<path class="st0" d="M206.6-43.1c-67.9,0-76.4,0.3-103,1.5C77-40.4,58.8-36.2,42.9-30C26.5-23.6,12.5-15.1-1.3-1.2
		s-22.4,27.8-28.8,44.3c-6.2,15.9-10.4,34.1-11.6,60.7c-1.2,26.7-1.5,35.2-1.5,103c0,67.9,0.3,76.4,1.5,103
		c1.2,26.6,5.4,44.8,11.6,60.7c6.4,16.4,14.9,30.4,28.8,44.3c13.9,13.9,27.8,22.4,44.3,28.8c15.9,6.2,34.1,10.4,60.7,11.6
		c26.7,1.2,35.2,1.5,103,1.5c67.9,0,76.4-0.3,103-1.5c26.6-1.2,44.8-5.4,60.7-11.6c16.4-6.4,30.4-14.9,44.3-28.8
		c13.9-13.9,22.4-27.8,28.8-44.3c6.2-15.9,10.4-34.1,11.6-60.7c1.2-26.7,1.5-35.2,1.5-103c0-67.9-0.3-76.4-1.5-103
		c-1.2-26.6-5.4-44.8-11.6-60.7c-6.4-16.4-14.9-30.4-28.8-44.3c-13.9-13.9-27.8-22.4-44.3-28.8c-15.9-6.2-34.1-10.4-60.7-11.6
		C283-42.9,274.5-43.1,206.6-43.1z M206.6,1.9c66.7,0,74.6,0.3,101,1.5C332,4.5,345.2,8.5,354,12c11.7,4.5,20,10,28.7,18.7
		c8.7,8.7,14.2,17.1,18.7,28.7c3.4,8.8,7.5,22,8.6,46.4c1.2,26.4,1.5,34.3,1.5,101c0,66.7-0.3,74.6-1.5,101
		c-1.1,24.4-5.2,37.6-8.6,46.4c-4.5,11.7-10,20-18.7,28.7c-8.7,8.7-17.1,14.2-28.7,18.7c-8.8,3.4-22,7.5-46.4,8.6
		c-26.4,1.2-34.3,1.5-101,1.5c-66.7,0-74.6-0.3-101-1.5c-24.4-1.1-37.6-5.2-46.4-8.6c-11.7-4.5-20-10-28.7-18.7
		c-8.7-8.7-14.2-17.1-18.7-28.7c-3.4-8.8-7.5-22-8.6-46.4c-1.2-26.4-1.5-34.3-1.5-101c0-66.7,0.3-74.6,1.5-101
		c1.1-24.4,5.2-37.6,8.6-46.4c4.5-11.7,10-20,18.7-28.7c8.7-8.7,17.1-14.2,28.7-18.7c8.8-3.4,22-7.5,46.4-8.6
		C132,2.1,139.9,1.9,206.6,1.9z"/>
	<path class="st0" d="M206.6,290.1c-46,0-83.3-37.3-83.3-83.3c0-46,37.3-83.3,83.3-83.3c46,0,83.3,37.3,83.3,83.3
		C290,252.8,252.7,290.1,206.6,290.1z M206.6,78.5c-70.9,0-128.3,57.5-128.3,128.3c0,70.9,57.5,128.3,128.3,128.3
		c70.9,0,128.3-57.5,128.3-128.3C335,135.9,277.5,78.5,206.6,78.5z"/>
	<path class="st0" d="M370,73.4c0,16.6-13.4,30-30,30c-16.6,0-30-13.4-30-30s13.4-30,30-30C356.6,43.4,370,56.8,370,73.4z"/>
</g>
</svg>
